name processed_emg_signals
nRows=75
nColumns=7
 
endheader
time	LGLTMED	LRF	LADDLONG	LST	LTA	LGM
1.28	0.0305549878289858	0.0393565851726153	0.0847510438578375	0.0299684600458535	0.1717647183743447	0.1060159247396398
1.281	0.0307487207189473	0.0397136410468899	0.0855868725890255	0.0299490301785463	0.1712047405831277	0.1034043422841787
1.282	0.0309405905251502	0.040079803219766	0.0864049630702006	0.029928302999818	0.1706325510043116	0.1008374587529969
1.283	0.0311303259732824	0.0404549437890322	0.08720449428238	0.0299062049865261	0.17004852112036	0.0983160502981523
1.284	0.03131766657965	0.0408389248099883	0.0879846614191708	0.0298826680868083	0.1694530392764546	0.0958408436611503
1.285	0.0315023627637445	0.041231598318631	0.0887446771998897	0.0298576300102962	0.1688465116764471	0.0934125163400087
1.286	0.0316841759473533	0.0416328063654789	0.089483773165602	0.0298310345111852	0.1682293633336816	0.091031696813766
1.287	0.0318628786404563	0.0420423810602229	0.0902012009551822	0.0298028316633974	0.1676020389725942	0.0886989648211077
1.288	0.0320382545141252	0.042460144627343	0.0908962335585209	0.0297729781270457	0.1669650038775618	0.0864148516898013
1.289	0.0322100984606226	0.0428859094727575	0.0915681665440676	0.0297414374053494	0.1663187446860962	0.0841798407136118
1.29	0.0323782166408899	0.0433194782613953	0.092216319257794	0.0297081800912027	0.1656637701240902	0.0819943675734476
1.291	0.0325424265196137	0.0437606440056193	0.0928400359907544	0.0296731841025893	0.1650006116816082	0.0798588207996367
1.292	0.0327025568880188	0.0442091901642309	0.0934386871122057	0.0296364349059998	0.164329824228204	0.0777735422724289
1.293	0.0328584478745635	0.0446648907518155	0.0940116701652978	0.0295979257271082	0.1636519865672425	0.0757388277579526
1.294	0.03300995094367	0.0451275104581952	0.094558410922318	0.0295576577479444	0.1629677019290881	0.0737549274770652
1.295	0.0331569288825517	0.0455968047777128	0.0950783643965439	0.0295156402898919	0.1622775984035182	0.0718220467048068
1.296	0.0332992557762412	0.0460725201482435	0.0955710158078747	0.0294718909818456	0.1615823293118637	0.0699403463983433
1.297	0.0334368169707349	0.0465543940997068	0.0960358814994851	0.029426435912975	0.160882573519588	0.0681099438518375
1.298	0.0335695090242312	0.0470421554119643	0.0964725098029092	0.0293793097694778	0.1601790356899467	0.0663309133769485
1.299	0.033697239646336	0.0475355242818636	0.0968804818490545	0.0293305559549207	0.1594724464794195	0.0646032870080968
1.3	0.0338199276252363	0.0480342124991615	0.097259412322902	0.029280226693665	0.1587635626758141	0.0629270552316954
1.301	0.0339375027428703	0.0485379236310406	0.097608950159709	0.0292283831170395	0.1580531672800125	0.0613021677386161
1.302	0.0340499056781513	0.0490463532150277	0.0979287791809098	0.02917509533185	0.1573420695323937	0.0597285341990953
1.303	0.0341570878984161	0.0495591889601209	0.0982186186679698	0.0291204424708513	0.1566311048848525	0.058206025059308
1.304	0.0342590115391432	0.0500761109560796	0.0984782238724906	0.0290645127247705	0.1559211349191313	0.0567344723588338
1.305	0.0343556492719747	0.0505967918908522	0.0987073864608782	0.029007403355542	0.155213047211959	0.0553136705682517
1.306	0.0344469841610272	0.0511208972761013	0.09890593489174	0.0289492206903643	0.1545077551473539	0.053943377445925
1.307	0.0345330095074065	0.0516480856807531	0.0990737347243009	0.0288900800962256	0.1538061976764858	0.0526233149130507
1.308	0.0346137286818832	0.0521780089725609	0.0992106888562577	0.0288301059345266	0.1531093390256621	0.0513531699459339
1.309	0.034689154945646	0.052710312567644	0.0993167376898079	0.0287694314955753	0.1524181683532589	0.0501325954844214
1.31	0.03475931125916	0.0532446356880709	0.0993918592251204	0.0287081989127639	0.1517336993565635	0.0489612113554658
1.311	0.0348242300791438	0.0537806116277237	0.0994360690809446	0.028646559056436	0.1510569698294507	0.0478386052106535
1.312	0.0348839531438246	0.0543178680268226	0.0994494204426906	0.0285846714075392	0.1503890411717125	0.0467643334764668
1.313	0.0349385312465799	0.0548560271556239	0.0994320039389339	0.0285227039112336	0.1497309978506444	0.0457379223159904
1.314	0.0349880239982238	0.055394706207978	0.0993839474476406	0.0284608328106632	0.1490839468151693	0.0447588686006856
1.315	0.0350324995781552	0.0559335176054446	0.0993054158338001	0.0283992424610824	0.1484490168625738	0.0438266408909906
1.316	0.0350720344746868	0.0564720693127048	0.0991966106205136	0.0283381251245628	0.1478273579576298	0.0429406804244824
1.317	0.0351067132149069	0.0570099651649856	0.0990577695956454	0.0282776807454623	0.1472201405038583	0.0421004021105024
1.318	0.0351366280845204	0.0575468052080921	0.0988891663562166	0.0282181167069241	0.1466285545665133	0.0413051955301354
1.319	0.0351618788381592	0.0580821860515523	0.098691109792615	0.028159647568623	0.1460538090468943	0.040554425940593
1.32	0.0351825724006715	0.0586157012351734	0.0984639435144716	0.0281024947859836	0.1454971308074373	0.0398474352831617
1.321	0.0351988225598572	0.0591469416092121	0.0982080452199934	0.0280468864110164	0.1449597637470851	0.0391835431938794
1.322	0.0352107496511671	0.0596754957281856	0.0979238260103412	0.0279930567749813	0.1444429678263808	0.0385620480162198
1.323	0.0352184802346822	0.0602009502583474	0.097611729650507	0.0279412461530342	0.1439480180417847	0.03798222781499
1.324	0.0352221467648	0.0607228903986308	0.0972722317780729	0.0278917004110646	0.1434762033487592	0.0374433413906633
1.325	0.0352218872529369	0.0612409003148664	0.0969058390611228	0.0278446706348462	0.1430288255331223	0.0369446292932787
1.326	0.0352178449236166	0.0617545635867943	0.0965130883066539	0.0278004127416094	0.1426071980300485	0.0364853148350019
1.327	0.035210167864337	0.0622634636673408	0.0960945455209358	0.0277591870740898	0.1422126446898907	0.0360646051004174
1.328	0.0351990086697627	0.062767184353346	0.0956508049234511	0.0277212579770921	0.1418464984897699	0.035681691953463
1.329	0.0351845240807467	0.0632653102668761	0.0951824879162406	0.027686893356613	0.1415101001898495	0.0353357530400372
1.33	0.0351668746189698	0.0637574273460263	0.0946902420108095	0.0276563642216086	0.1412047969331434	0.0350259527851672
1.331	0.0351462242178843	0.0642431233440963	0.0941747397149336	0.0276299442084167	0.1409319407878193	0.034751443383821
1.332	0.0351227398508803	0.0647219883358988	0.0936366773820867	0.0276079090879491	0.1406928872311336	0.0345113657845053
1.333	0.0350965911575106	0.0651936152299574	0.0930767740263555	0.0275905362557852	0.1404889935743416	0.0343048506648134
1.334	0.0350679500686241	0.0656576002853628	0.0924957701058365	0.0275781042053371	0.1403216173282826	0.0341310193982165
1.335	0.0350369904312233	0.0661135436320895	0.0918944262776278	0.0275708919842775	0.1401921145099059	0.0339889850113578
1.336	0.0350038876338274	0.0665610497935676	0.0912735221273686	0.0275691786344901	0.1401018378905648	0.0338778531311536
1.337	0.034968818233082	0.0669997282103362	0.0906338548761962	0.0275732426157313	0.1400521351877332	0.0337967229209971
1.338	0.0349319595822764	0.0674291937635457	0.0899762380677091	0.027583361213269	0.1400443472024064	0.0337446880053083
1.339	0.0348934894624855	0.067849067297064	0.0893015002372932	0.0275998099298865	0.1400798059054616	0.0337208373816989
1.34	0.0348535857168896	0.0682589761369133	0.0886104835659112	0.0276228618626937	0.1401598324768689	0.0337242563199065
1.341	0.0348124258888694	0.0686585546067547	0.0879040425203413	0.0276527870654439	0.1402857353025035	0.0337540272466912
1.342	0.0347701868643427	0.0690474445381669	0.0871830424815525	0.0276898518971444	0.1404588079336897	0.0338092306157873
1.343	0.0347270445187872	0.0694252957744131	0.0864483583629606	0.0277343183578881	0.1406803270151738	0.0338889457621294
1.344	0.0346831733694476	0.0697917666664494	0.0857008732203067	0.0277864434129018	0.140951550187414	0.0339922517395339
1.345	0.0346387462331911	0.0701465245598674	0.0849414768551925	0.0278464783057844	0.1412737139691024	0.0341182281411714
1.346	0.0345939338906232	0.0704892462716421	0.0841710644146936	0.027914667861853	0.1416480316257908	0.0342659559022319
1.347	0.0345489047570475	0.070819618555582	0.0833905349899002	0.0279912497826407	0.1420756910302397	0.0344345180842474
1.348	0.0345038245608785	0.0711373385554737	0.0826007902165786	0.0280764539325687	0.1425578525199825	0.0346230006405526
1.349	0.0344588560301552	0.0714421142449411	0.0818027328813355	0.0281705016190178	0.1430956467572362	0.0348304931624409
1.35	0.0344141585877249	0.0717336648530105	0.0809972655367498	0.0282736048670763	0.1436901725960599	0.0350560896056405
1.351	0.0343698880558219	0.0720117212745734	0.0801852891288109	0.0283859656903769	0.144342494961223	0.0352988889967542
1.352	0.0343261963706077	0.0722760264648663	0.0793677016398507	0.0285077753594607	0.1450536427429453	0.0355579961194546
1.353	0.0342832313073705	0.0725263358172612	0.0785453967500024	0.0286392136691861	0.1458246067114351	0.0358325221801856
1.354	0.0342411362168703	0.0727624175236689	0.0777192625199816	0.0287804482067067	0.1466563374548824	0.0361215854532908
